<?xml version="1.0" encoding="UTF-8" standalone="no"?>
<!DOCTYPE svg PUBLIC "-//W3C//DTD SVG 1.1//EN"
 "http://www.w3.org/Graphics/SVG/1.1/DTD/svg11.dtd">
<!-- Generated by graphviz version 2.43.0 (0)
 -->
<!-- Title: %3 Pages: 1 -->
<svg width="2850pt" height="332pt"
 viewBox="0.00 0.00 2850.32 332.00" xmlns="http://www.w3.org/2000/svg" xmlns:xlink="http://www.w3.org/1999/xlink">
<g id="graph0" class="graph" transform="scale(1 1) rotate(0) translate(4 328)">
<title>%3</title>
<polygon fill="white" stroke="transparent" points="-4,4 -4,-328 2846.32,-328 2846.32,4 -4,4"/>
<!-- [root] helm_release.strimzi (expand) -->
<g id="node1" class="node">
<title>[root] helm_release.strimzi (expand)</title>
<polygon fill="none" stroke="black" points="679.23,-180 514.23,-180 514.23,-144 679.23,-144 679.23,-180"/>
<text text-anchor="middle" x="596.73" y="-158.3" font-family="Times,serif" font-size="14.00">helm_release.strimzi</text>
</g>
<!-- [root] provider[&quot;registry.terraform.io/hashicorp/helm&quot;] -->
<g id="node5" class="node">
<title>[root] provider[&quot;registry.terraform.io/hashicorp/helm&quot;]</title>
<polygon fill="none" stroke="black" points="332.73,-108 -0.24,-90 332.73,-72 665.7,-90 332.73,-108"/>
<text text-anchor="middle" x="332.73" y="-86.3" font-family="Times,serif" font-size="14.00">provider[&quot;registry.terraform.io/hashicorp/helm&quot;]</text>
</g>
<!-- [root] helm_release.strimzi (expand)&#45;&gt;[root] provider[&quot;registry.terraform.io/hashicorp/helm&quot;] -->
<g id="edge1" class="edge">
<title>[root] helm_release.strimzi (expand)&#45;&gt;[root] provider[&quot;registry.terraform.io/hashicorp/helm&quot;]</title>
<path fill="none" stroke="black" d="M532.49,-143.97C490.95,-132.95 437.12,-118.68 395.81,-107.73"/>
<polygon fill="black" stroke="black" points="396.7,-104.34 386.13,-105.16 394.9,-111.1 396.7,-104.34"/>
</g>
<!-- [root] var.namespace -->
<g id="node9" class="node">
<title>[root] var.namespace</title>
<polygon fill="none" stroke="black" points="799.73,-108 683.73,-108 683.73,-72 805.73,-72 805.73,-102 799.73,-108"/>
<polyline fill="none" stroke="black" points="799.73,-108 799.73,-102 "/>
<polyline fill="none" stroke="black" points="805.73,-102 799.73,-102 "/>
<text text-anchor="middle" x="744.73" y="-86.3" font-family="Times,serif" font-size="14.00">var.namespace</text>
</g>
<!-- [root] helm_release.strimzi (expand)&#45;&gt;[root] var.namespace -->
<g id="edge2" class="edge">
<title>[root] helm_release.strimzi (expand)&#45;&gt;[root] var.namespace</title>
<path fill="none" stroke="black" d="M632.94,-143.88C652.99,-134.39 678.11,-122.51 699.45,-112.42"/>
<polygon fill="black" stroke="black" points="701.1,-115.51 708.65,-108.07 698.11,-109.18 701.1,-115.51"/>
</g>
<!-- [root] kubernetes_manifest.kafka_my_cluster (expand) -->
<g id="node2" class="node">
<title>[root] kubernetes_manifest.kafka_my_cluster (expand)</title>
<polygon fill="none" stroke="black" points="1384.23,-180 1091.23,-180 1091.23,-144 1384.23,-144 1384.23,-180"/>
<text text-anchor="middle" x="1237.73" y="-158.3" font-family="Times,serif" font-size="14.00">kubernetes_manifest.kafka_my_cluster</text>
</g>
<!-- [root] provider[&quot;registry.terraform.io/hashicorp/kubernetes&quot;] -->
<g id="node6" class="node">
<title>[root] provider[&quot;registry.terraform.io/hashicorp/kubernetes&quot;]</title>
<polygon fill="none" stroke="black" points="1197.73,-108 823.54,-90 1197.73,-72 1571.93,-90 1197.73,-108"/>
<text text-anchor="middle" x="1197.73" y="-86.3" font-family="Times,serif" font-size="14.00">provider[&quot;registry.terraform.io/hashicorp/kubernetes&quot;]</text>
</g>
<!-- [root] kubernetes_manifest.kafka_my_cluster (expand)&#45;&gt;[root] provider[&quot;registry.terraform.io/hashicorp/kubernetes&quot;] -->
<g id="edge3" class="edge">
<title>[root] kubernetes_manifest.kafka_my_cluster (expand)&#45;&gt;[root] provider[&quot;registry.terraform.io/hashicorp/kubernetes&quot;]</title>
<path fill="none" stroke="black" d="M1227.85,-143.7C1223.18,-135.52 1217.51,-125.6 1212.35,-116.58"/>
<polygon fill="black" stroke="black" points="1215.23,-114.57 1207.23,-107.62 1209.16,-118.04 1215.23,-114.57"/>
</g>
<!-- [root] kubernetes_namespace.kafka (expand) -->
<g id="node3" class="node">
<title>[root] kubernetes_namespace.kafka (expand)</title>
<polygon fill="none" stroke="black" points="1072.73,-180 846.73,-180 846.73,-144 1072.73,-144 1072.73,-180"/>
<text text-anchor="middle" x="959.73" y="-158.3" font-family="Times,serif" font-size="14.00">kubernetes_namespace.kafka</text>
</g>
<!-- [root] kubernetes_namespace.kafka (expand)&#45;&gt;[root] provider[&quot;registry.terraform.io/hashicorp/kubernetes&quot;] -->
<g id="edge4" class="edge">
<title>[root] kubernetes_namespace.kafka (expand)&#45;&gt;[root] provider[&quot;registry.terraform.io/hashicorp/kubernetes&quot;]</title>
<path fill="none" stroke="black" d="M1017.65,-143.97C1054.28,-133.19 1101.5,-119.3 1138.4,-108.45"/>
<polygon fill="black" stroke="black" points="1139.43,-111.8 1148.03,-105.62 1137.45,-105.08 1139.43,-111.8"/>
</g>
<!-- [root] kubernetes_namespace.kafka (expand)&#45;&gt;[root] var.namespace -->
<g id="edge5" class="edge">
<title>[root] kubernetes_namespace.kafka (expand)&#45;&gt;[root] var.namespace</title>
<path fill="none" stroke="black" d="M907.41,-143.97C877.11,-134.1 838.79,-121.62 806.95,-111.25"/>
<polygon fill="black" stroke="black" points="807.88,-107.88 797.29,-108.11 805.71,-114.53 807.88,-107.88"/>
</g>
<!-- [root] var.kube_config -->
<g id="node8" class="node">
<title>[root] var.kube_config</title>
<polygon fill="none" stroke="black" points="822.23,-36 701.23,-36 701.23,0 828.23,0 828.23,-30 822.23,-36"/>
<polyline fill="none" stroke="black" points="822.23,-36 822.23,-30 "/>
<polyline fill="none" stroke="black" points="828.23,-30 822.23,-30 "/>
<text text-anchor="middle" x="764.73" y="-14.3" font-family="Times,serif" font-size="14.00">var.kube_config</text>
</g>
<!-- [root] provider[&quot;registry.terraform.io/hashicorp/helm&quot;]&#45;&gt;[root] var.kube_config -->
<g id="edge8" class="edge">
<title>[root] provider[&quot;registry.terraform.io/hashicorp/helm&quot;]&#45;&gt;[root] var.kube_config</title>
<path fill="none" stroke="black" d="M411.47,-76.24C491.01,-63.35 612.95,-43.6 690.75,-30.99"/>
<polygon fill="black" stroke="black" points="691.64,-34.39 700.95,-29.34 690.52,-27.48 691.64,-34.39"/>
</g>
<!-- [root] provider[&quot;registry.terraform.io/hashicorp/kubernetes&quot;]&#45;&gt;[root] var.kube_config -->
<g id="edge11" class="edge">
<title>[root] provider[&quot;registry.terraform.io/hashicorp/kubernetes&quot;]&#45;&gt;[root] var.kube_config</title>
<path fill="none" stroke="black" d="M1116.55,-75.87C1036.63,-62.96 915.66,-43.4 838.44,-30.91"/>
<polygon fill="black" stroke="black" points="838.74,-27.42 828.31,-29.28 837.62,-34.33 838.74,-27.42"/>
</g>
<!-- [root] provider[&quot;registry.terraform.io/hashicorp/helm&quot;] (close) -->
<g id="node10" class="node">
<title>[root] provider[&quot;registry.terraform.io/hashicorp/helm&quot;] (close)</title>
<ellipse fill="none" stroke="black" cx="596.73" cy="-234" rx="297.05" ry="18"/>
<text text-anchor="middle" x="596.73" y="-230.3" font-family="Times,serif" font-size="14.00">[root] provider[&quot;registry.terraform.io/hashicorp/helm&quot;] (close)</text>
</g>
<!-- [root] provider[&quot;registry.terraform.io/hashicorp/helm&quot;] (close)&#45;&gt;[root] helm_release.strimzi (expand) -->
<g id="edge7" class="edge">
<title>[root] provider[&quot;registry.terraform.io/hashicorp/helm&quot;] (close)&#45;&gt;[root] helm_release.strimzi (expand)</title>
<path fill="none" stroke="black" d="M596.73,-215.7C596.73,-207.98 596.73,-198.71 596.73,-190.11"/>
<polygon fill="black" stroke="black" points="600.24,-190.1 596.73,-180.1 593.24,-190.1 600.24,-190.1"/>
</g>
<!-- [root] provider[&quot;registry.terraform.io/hashicorp/kubernetes&quot;] (close) -->
<g id="node11" class="node">
<title>[root] provider[&quot;registry.terraform.io/hashicorp/kubernetes&quot;] (close)</title>
<ellipse fill="none" stroke="black" cx="1237.73" cy="-234" rx="326.04" ry="18"/>
<text text-anchor="middle" x="1237.73" y="-230.3" font-family="Times,serif" font-size="14.00">[root] provider[&quot;registry.terraform.io/hashicorp/kubernetes&quot;] (close)</text>
</g>
<!-- [root] provider[&quot;registry.terraform.io/hashicorp/kubernetes&quot;] (close)&#45;&gt;[root] kubernetes_manifest.kafka_my_cluster (expand) -->
<g id="edge9" class="edge">
<title>[root] provider[&quot;registry.terraform.io/hashicorp/kubernetes&quot;] (close)&#45;&gt;[root] kubernetes_manifest.kafka_my_cluster (expand)</title>
<path fill="none" stroke="black" d="M1237.73,-215.7C1237.73,-207.98 1237.73,-198.71 1237.73,-190.11"/>
<polygon fill="black" stroke="black" points="1241.24,-190.1 1237.73,-180.1 1234.24,-190.1 1241.24,-190.1"/>
</g>
<!-- [root] provider[&quot;registry.terraform.io/hashicorp/kubernetes&quot;] (close)&#45;&gt;[root] kubernetes_namespace.kafka (expand) -->
<g id="edge10" class="edge">
<title>[root] provider[&quot;registry.terraform.io/hashicorp/kubernetes&quot;] (close)&#45;&gt;[root] kubernetes_namespace.kafka (expand)</title>
<path fill="none" stroke="black" d="M1171.5,-216.32C1131.21,-206.18 1079.56,-193.17 1037.35,-182.54"/>
<polygon fill="black" stroke="black" points="1037.95,-179.08 1027.39,-180.04 1036.24,-185.87 1037.95,-179.08"/>
</g>
<!-- [root] provider[&quot;registry.terraform.io/hashicorp/null&quot;] (close) -->
<g id="node12" class="node">
<title>[root] provider[&quot;registry.terraform.io/hashicorp/null&quot;] (close)</title>
<ellipse fill="none" stroke="black" cx="1873.73" cy="-234" rx="291.65" ry="18"/>
<text text-anchor="middle" x="1873.73" y="-230.3" font-family="Times,serif" font-size="14.00">[root] provider[&quot;registry.terraform.io/hashicorp/null&quot;] (close)</text>
</g>
<!-- [root] root -->
<g id="node13" class="node">
<title>[root] root</title>
<ellipse fill="none" stroke="black" cx="1873.73" cy="-306" rx="58.49" ry="18"/>
<text text-anchor="middle" x="1873.73" y="-302.3" font-family="Times,serif" font-size="14.00">[root] root</text>
</g>
<!-- [root] root&#45;&gt;[root] provider[&quot;registry.terraform.io/hashicorp/helm&quot;] (close) -->
<g id="edge15" class="edge">
<title>[root] root&#45;&gt;[root] provider[&quot;registry.terraform.io/hashicorp/helm&quot;] (close)</title>
<path fill="none" stroke="black" d="M1816.55,-301.9C1666.62,-293.76 1249.78,-271.11 902.73,-252 875.17,-250.48 846.21,-248.88 817.55,-247.29"/>
<polygon fill="black" stroke="black" points="817.61,-243.79 807.43,-246.73 817.22,-250.78 817.61,-243.79"/>
</g>
<!-- [root] root&#45;&gt;[root] provider[&quot;registry.terraform.io/hashicorp/kubernetes&quot;] (close) -->
<g id="edge16" class="edge">
<title>[root] root&#45;&gt;[root] provider[&quot;registry.terraform.io/hashicorp/kubernetes&quot;] (close)</title>
<path fill="none" stroke="black" d="M1819.51,-299.03C1724.7,-288.6 1525.72,-266.7 1387.02,-251.43"/>
<polygon fill="black" stroke="black" points="1387.05,-247.91 1376.72,-250.3 1386.28,-254.87 1387.05,-247.91"/>
</g>
<!-- [root] root&#45;&gt;[root] provider[&quot;registry.terraform.io/hashicorp/null&quot;] (close) -->
<g id="edge17" class="edge">
<title>[root] root&#45;&gt;[root] provider[&quot;registry.terraform.io/hashicorp/null&quot;] (close)</title>
<path fill="none" stroke="black" d="M1873.73,-287.7C1873.73,-279.98 1873.73,-270.71 1873.73,-262.11"/>
<polygon fill="black" stroke="black" points="1877.24,-262.1 1873.73,-252.1 1870.24,-262.1 1877.24,-262.1"/>
</g>
<!-- [root] output.consumer (expand) -->
<g id="node14" class="node">
<title>[root] output.consumer (expand)</title>
<ellipse fill="none" stroke="black" cx="2345.73" cy="-234" rx="161.67" ry="18"/>
<text text-anchor="middle" x="2345.73" y="-230.3" font-family="Times,serif" font-size="14.00">[root] output.consumer (expand)</text>
</g>
<!-- [root] root&#45;&gt;[root] output.consumer (expand) -->
<g id="edge13" class="edge">
<title>[root] root&#45;&gt;[root] output.consumer (expand)</title>
<path fill="none" stroke="black" d="M1925.15,-297.38C2001.03,-286.12 2144.6,-264.83 2242.69,-250.28"/>
<polygon fill="black" stroke="black" points="2243.25,-253.74 2252.63,-248.81 2242.23,-246.81 2243.25,-253.74"/>
</g>
<!-- [root] output.producer (expand) -->
<g id="node15" class="node">
<title>[root] output.producer (expand)</title>
<ellipse fill="none" stroke="black" cx="2683.73" cy="-234" rx="158.67" ry="18"/>
<text text-anchor="middle" x="2683.73" y="-230.3" font-family="Times,serif" font-size="14.00">[root] output.producer (expand)</text>
</g>
<!-- [root] root&#45;&gt;[root] output.producer (expand) -->
<g id="edge14" class="edge">
<title>[root] root&#45;&gt;[root] output.producer (expand)</title>
<path fill="none" stroke="black" d="M1930.1,-300.72C2042,-292.14 2300.07,-271.96 2516.73,-252 2531.12,-250.68 2546.19,-249.23 2561.15,-247.75"/>
<polygon fill="black" stroke="black" points="2561.87,-251.2 2571.48,-246.73 2561.18,-244.23 2561.87,-251.2"/>
</g>
</g>
</svg>
