<?xml version="1.0" encoding="UTF-8" standalone="no"?>
<!DOCTYPE svg PUBLIC "-//W3C//DTD SVG 1.1//EN"
 "http://www.w3.org/Graphics/SVG/1.1/DTD/svg11.dtd">
<!-- Generated by graphviz version 2.43.0 (0)
 -->
<!-- Title: %3 Pages: 1 -->
<svg width="2096pt" height="332pt"
 viewBox="0.00 0.00 2096.32 332.00" xmlns="http://www.w3.org/2000/svg" xmlns:xlink="http://www.w3.org/1999/xlink">
<g id="graph0" class="graph" transform="scale(1 1) rotate(0) translate(4 328)">
<title>%3</title>
<polygon fill="white" stroke="transparent" points="-4,4 -4,-328 2092.32,-328 2092.32,4 -4,4"/>
<!-- [root] helm_release.strimzi (expand) -->
<g id="node1" class="node">
<title>[root] helm_release.strimzi (expand)</title>
<polygon fill="none" stroke="black" points="527.23,-180 362.23,-180 362.23,-144 527.23,-144 527.23,-180"/>
<text text-anchor="middle" x="444.73" y="-158.3" font-family="Times,serif" font-size="14.00">helm_release.strimzi</text>
</g>
<!-- [root] provider[&quot;registry.terraform.io/hashicorp/helm&quot;] -->
<g id="node4" class="node">
<title>[root] provider[&quot;registry.terraform.io/hashicorp/helm&quot;]</title>
<polygon fill="none" stroke="black" points="332.73,-108 -0.24,-90 332.73,-72 665.7,-90 332.73,-108"/>
<text text-anchor="middle" x="332.73" y="-86.3" font-family="Times,serif" font-size="14.00">provider[&quot;registry.terraform.io/hashicorp/helm&quot;]</text>
</g>
<!-- [root] helm_release.strimzi (expand)&#45;&gt;[root] provider[&quot;registry.terraform.io/hashicorp/helm&quot;] -->
<g id="edge1" class="edge">
<title>[root] helm_release.strimzi (expand)&#45;&gt;[root] provider[&quot;registry.terraform.io/hashicorp/helm&quot;]</title>
<path fill="none" stroke="black" d="M417.34,-143.88C402.04,-134.31 382.84,-122.32 366.61,-112.17"/>
<polygon fill="black" stroke="black" points="368.27,-109.08 357.94,-106.75 364.56,-115.02 368.27,-109.08"/>
</g>
<!-- [root] var.namespace -->
<g id="node7" class="node">
<title>[root] var.namespace</title>
<polygon fill="none" stroke="black" points="799.73,-108 683.73,-108 683.73,-72 805.73,-72 805.73,-102 799.73,-108"/>
<polyline fill="none" stroke="black" points="799.73,-108 799.73,-102 "/>
<polyline fill="none" stroke="black" points="805.73,-102 799.73,-102 "/>
<text text-anchor="middle" x="744.73" y="-86.3" font-family="Times,serif" font-size="14.00">var.namespace</text>
</g>
<!-- [root] helm_release.strimzi (expand)&#45;&gt;[root] var.namespace -->
<g id="edge2" class="edge">
<title>[root] helm_release.strimzi (expand)&#45;&gt;[root] var.namespace</title>
<path fill="none" stroke="black" d="M519.63,-143.98C562.16,-134.25 616.65,-121.7 673.73,-108.23"/>
<polygon fill="black" stroke="black" points="674.74,-111.58 683.66,-105.88 673.12,-104.77 674.74,-111.58"/>
</g>
<!-- [root] kubernetes_manifest.kafka_my_cluster (expand) -->
<g id="node2" class="node">
<title>[root] kubernetes_manifest.kafka_my_cluster (expand)</title>
<polygon fill="none" stroke="black" points="1344.23,-180 1051.23,-180 1051.23,-144 1344.23,-144 1344.23,-180"/>
<text text-anchor="middle" x="1197.73" y="-158.3" font-family="Times,serif" font-size="14.00">kubernetes_manifest.kafka_my_cluster</text>
</g>
<!-- [root] provider[&quot;registry.terraform.io/hashicorp/kubernetes&quot;] -->
<g id="node5" class="node">
<title>[root] provider[&quot;registry.terraform.io/hashicorp/kubernetes&quot;]</title>
<polygon fill="none" stroke="black" points="1197.73,-108 823.54,-90 1197.73,-72 1571.93,-90 1197.73,-108"/>
<text text-anchor="middle" x="1197.73" y="-86.3" font-family="Times,serif" font-size="14.00">provider[&quot;registry.terraform.io/hashicorp/kubernetes&quot;]</text>
</g>
<!-- [root] kubernetes_manifest.kafka_my_cluster (expand)&#45;&gt;[root] provider[&quot;registry.terraform.io/hashicorp/kubernetes&quot;] -->
<g id="edge3" class="edge">
<title>[root] kubernetes_manifest.kafka_my_cluster (expand)&#45;&gt;[root] provider[&quot;registry.terraform.io/hashicorp/kubernetes&quot;]</title>
<path fill="none" stroke="black" d="M1197.73,-143.7C1197.73,-135.98 1197.73,-126.71 1197.73,-118.11"/>
<polygon fill="black" stroke="black" points="1201.24,-118.1 1197.73,-108.1 1194.24,-118.1 1201.24,-118.1"/>
</g>
<!-- [root] kubernetes_namespace.kafka (expand) -->
<g id="node3" class="node">
<title>[root] kubernetes_namespace.kafka (expand)</title>
<polygon fill="none" stroke="black" points="1032.73,-180 806.73,-180 806.73,-144 1032.73,-144 1032.73,-180"/>
<text text-anchor="middle" x="919.73" y="-158.3" font-family="Times,serif" font-size="14.00">kubernetes_namespace.kafka</text>
</g>
<!-- [root] kubernetes_namespace.kafka (expand)&#45;&gt;[root] provider[&quot;registry.terraform.io/hashicorp/kubernetes&quot;] -->
<g id="edge4" class="edge">
<title>[root] kubernetes_namespace.kafka (expand)&#45;&gt;[root] provider[&quot;registry.terraform.io/hashicorp/kubernetes&quot;]</title>
<path fill="none" stroke="black" d="M987.39,-143.97C1030.92,-133 1087.28,-118.81 1130.7,-107.88"/>
<polygon fill="black" stroke="black" points="1131.75,-111.22 1140.59,-105.39 1130.04,-104.44 1131.75,-111.22"/>
</g>
<!-- [root] kubernetes_namespace.kafka (expand)&#45;&gt;[root] var.namespace -->
<g id="edge5" class="edge">
<title>[root] kubernetes_namespace.kafka (expand)&#45;&gt;[root] var.namespace</title>
<path fill="none" stroke="black" d="M876.93,-143.88C852.79,-134.22 822.45,-122.09 796.93,-111.88"/>
<polygon fill="black" stroke="black" points="797.99,-108.53 787.41,-108.07 795.39,-115.03 797.99,-108.53"/>
</g>
<!-- [root] var.kube_config -->
<g id="node6" class="node">
<title>[root] var.kube_config</title>
<polygon fill="none" stroke="black" points="822.23,-36 701.23,-36 701.23,0 828.23,0 828.23,-30 822.23,-36"/>
<polyline fill="none" stroke="black" points="822.23,-36 822.23,-30 "/>
<polyline fill="none" stroke="black" points="828.23,-30 822.23,-30 "/>
<text text-anchor="middle" x="764.73" y="-14.3" font-family="Times,serif" font-size="14.00">var.kube_config</text>
</g>
<!-- [root] provider[&quot;registry.terraform.io/hashicorp/helm&quot;]&#45;&gt;[root] var.kube_config -->
<g id="edge7" class="edge">
<title>[root] provider[&quot;registry.terraform.io/hashicorp/helm&quot;]&#45;&gt;[root] var.kube_config</title>
<path fill="none" stroke="black" d="M411.47,-76.24C491.01,-63.35 612.95,-43.6 690.75,-30.99"/>
<polygon fill="black" stroke="black" points="691.64,-34.39 700.95,-29.34 690.52,-27.48 691.64,-34.39"/>
</g>
<!-- [root] provider[&quot;registry.terraform.io/hashicorp/kubernetes&quot;]&#45;&gt;[root] var.kube_config -->
<g id="edge10" class="edge">
<title>[root] provider[&quot;registry.terraform.io/hashicorp/kubernetes&quot;]&#45;&gt;[root] var.kube_config</title>
<path fill="none" stroke="black" d="M1116.55,-75.87C1036.63,-62.96 915.66,-43.4 838.44,-30.91"/>
<polygon fill="black" stroke="black" points="838.74,-27.42 828.31,-29.28 837.62,-34.33 838.74,-27.42"/>
</g>
<!-- [root] provider[&quot;registry.terraform.io/hashicorp/helm&quot;] (close) -->
<g id="node8" class="node">
<title>[root] provider[&quot;registry.terraform.io/hashicorp/helm&quot;] (close)</title>
<ellipse fill="none" stroke="black" cx="444.73" cy="-234" rx="297.05" ry="18"/>
<text text-anchor="middle" x="444.73" y="-230.3" font-family="Times,serif" font-size="14.00">[root] provider[&quot;registry.terraform.io/hashicorp/helm&quot;] (close)</text>
</g>
<!-- [root] provider[&quot;registry.terraform.io/hashicorp/helm&quot;] (close)&#45;&gt;[root] helm_release.strimzi (expand) -->
<g id="edge6" class="edge">
<title>[root] provider[&quot;registry.terraform.io/hashicorp/helm&quot;] (close)&#45;&gt;[root] helm_release.strimzi (expand)</title>
<path fill="none" stroke="black" d="M444.73,-215.7C444.73,-207.98 444.73,-198.71 444.73,-190.11"/>
<polygon fill="black" stroke="black" points="448.24,-190.1 444.73,-180.1 441.24,-190.1 448.24,-190.1"/>
</g>
<!-- [root] provider[&quot;registry.terraform.io/hashicorp/kubernetes&quot;] (close) -->
<g id="node9" class="node">
<title>[root] provider[&quot;registry.terraform.io/hashicorp/kubernetes&quot;] (close)</title>
<ellipse fill="none" stroke="black" cx="1085.73" cy="-234" rx="326.04" ry="18"/>
<text text-anchor="middle" x="1085.73" y="-230.3" font-family="Times,serif" font-size="14.00">[root] provider[&quot;registry.terraform.io/hashicorp/kubernetes&quot;] (close)</text>
</g>
<!-- [root] provider[&quot;registry.terraform.io/hashicorp/kubernetes&quot;] (close)&#45;&gt;[root] kubernetes_manifest.kafka_my_cluster (expand) -->
<g id="edge8" class="edge">
<title>[root] provider[&quot;registry.terraform.io/hashicorp/kubernetes&quot;] (close)&#45;&gt;[root] kubernetes_manifest.kafka_my_cluster (expand)</title>
<path fill="none" stroke="black" d="M1112.85,-216.05C1127.6,-206.84 1146.03,-195.32 1161.94,-185.37"/>
<polygon fill="black" stroke="black" points="1163.86,-188.3 1170.48,-180.03 1160.15,-182.36 1163.86,-188.3"/>
</g>
<!-- [root] provider[&quot;registry.terraform.io/hashicorp/kubernetes&quot;] (close)&#45;&gt;[root] kubernetes_namespace.kafka (expand) -->
<g id="edge9" class="edge">
<title>[root] provider[&quot;registry.terraform.io/hashicorp/kubernetes&quot;] (close)&#45;&gt;[root] kubernetes_namespace.kafka (expand)</title>
<path fill="none" stroke="black" d="M1045.55,-216.05C1022.68,-206.41 993.84,-194.25 969.54,-184"/>
<polygon fill="black" stroke="black" points="970.7,-180.69 960.12,-180.03 967.98,-187.14 970.7,-180.69"/>
</g>
<!-- [root] root -->
<g id="node10" class="node">
<title>[root] root</title>
<ellipse fill="none" stroke="black" cx="1338.73" cy="-306" rx="58.49" ry="18"/>
<text text-anchor="middle" x="1338.73" y="-302.3" font-family="Times,serif" font-size="14.00">[root] root</text>
</g>
<!-- [root] root&#45;&gt;[root] provider[&quot;registry.terraform.io/hashicorp/helm&quot;] (close) -->
<g id="edge13" class="edge">
<title>[root] root&#45;&gt;[root] provider[&quot;registry.terraform.io/hashicorp/helm&quot;] (close)</title>
<path fill="none" stroke="black" d="M1282.81,-300.62C1154.47,-290.57 834.05,-265.48 628.67,-249.4"/>
<polygon fill="black" stroke="black" points="628.91,-245.91 618.67,-248.62 628.37,-252.89 628.91,-245.91"/>
</g>
<!-- [root] root&#45;&gt;[root] provider[&quot;registry.terraform.io/hashicorp/kubernetes&quot;] (close) -->
<g id="edge14" class="edge">
<title>[root] root&#45;&gt;[root] provider[&quot;registry.terraform.io/hashicorp/kubernetes&quot;] (close)</title>
<path fill="none" stroke="black" d="M1296.67,-293.36C1258.45,-282.79 1201.29,-266.97 1156.12,-254.47"/>
<polygon fill="black" stroke="black" points="1156.95,-251.07 1146.38,-251.78 1155.08,-257.82 1156.95,-251.07"/>
</g>
<!-- [root] output.consumer (expand) -->
<g id="node11" class="node">
<title>[root] output.consumer (expand)</title>
<ellipse fill="none" stroke="black" cx="1591.73" cy="-234" rx="161.67" ry="18"/>
<text text-anchor="middle" x="1591.73" y="-230.3" font-family="Times,serif" font-size="14.00">[root] output.consumer (expand)</text>
</g>
<!-- [root] root&#45;&gt;[root] output.consumer (expand) -->
<g id="edge11" class="edge">
<title>[root] root&#45;&gt;[root] output.consumer (expand)</title>
<path fill="none" stroke="black" d="M1380.8,-293.36C1419.94,-282.53 1478.93,-266.21 1524.58,-253.58"/>
<polygon fill="black" stroke="black" points="1525.7,-256.9 1534.4,-250.86 1523.83,-250.16 1525.7,-256.9"/>
</g>
<!-- [root] output.producer (expand) -->
<g id="node12" class="node">
<title>[root] output.producer (expand)</title>
<ellipse fill="none" stroke="black" cx="1929.73" cy="-234" rx="158.67" ry="18"/>
<text text-anchor="middle" x="1929.73" y="-230.3" font-family="Times,serif" font-size="14.00">[root] output.producer (expand)</text>
</g>
<!-- [root] root&#45;&gt;[root] output.producer (expand) -->
<g id="edge12" class="edge">
<title>[root] root&#45;&gt;[root] output.producer (expand)</title>
<path fill="none" stroke="black" d="M1392.22,-298.66C1487.05,-287.43 1686.61,-263.8 1814.09,-248.7"/>
<polygon fill="black" stroke="black" points="1814.77,-252.14 1824.29,-247.49 1813.94,-245.19 1814.77,-252.14"/>
</g>
</g>
</svg>
